<svg version="1.0" xmlns="http://www.w3.org/2000/svg" width="1706.667" height="1657.333" viewBox="0 0 1280 1243"><path d="m632 20-18.5 20-.5 26.6-.5 26.5-37.7-.1c-20.8 0-37.8.3-37.8.6 0 .4 2.5 4.7 5.6 9.5l5.6 8.9h32.9c18.1 0 32.9.4 32.9.8 0 .5-1.8 5.7-4.1 11.7-2.2 5.9-4.8 14.2-5.6 18.4-2.5 11.9-7.4 15.8-35.1 28.5l-14.3 6.6-13.7.1c-7.5.1-20.7.5-29.2.8-13.3.6-15.1.8-12.7 1.9 48 20.9 60.4 26.2 61 26.2.4 0 11.9-6.6 25.5-14.6s25.1-14.6 25.5-14.7c.5-.1 4.5 5.5 9 12.4 12.6 19.5 18.1 24.9 25.3 24.9 2.4 0 4.4-.3 4.4-.8 0-.4-2-11-4.5-23.6-2.5-12.6-4.5-23.4-4.5-24 0-.6 1.8 2.9 3.9 7.9 10.5 24.7 20.4 40.8 35.6 57.7l9.6 10.8h-37.6l-23.4 18.5c-12.9 10.2-23.8 18.5-24.2 18.5-.4 0-1.1-1-1.4-2.3-1.9-6.1-10.8-34.2-11-34.5-.1-.1-4.1 2.1-8.8 5l-8.6 5.3-.1 56.2v56.2l-4.7-.5c-2.7-.2-20.1-1.6-38.7-2.9-18.7-1.4-34.1-2.7-34.3-2.9-.3-.2-4.9-19.9-10.4-43.8-5.4-23.8-11.2-48.8-12.8-55.5l-2.9-12.2 4.9-25.3c2.7-13.9 4.9-25.6 4.9-26.1 0-1-6.9-.9-11.2.3-12 3.4-17.3 17.1-17.3 44.5 0 18.7 2.6 32 10.5 54.9 1.1 3.3 1.9 6.1 1.7 6.2-.2.2-9.1-7.5-19.8-17l-19.4-17.4-6.7 6.6c-3.8 3.7-6.8 6.9-6.8 7.2 0 .3 6.9 6.5 15.3 13.7 17.1 14.7 32.8 30.4 31 31-2.2.8-18.4-6.3-47.5-20.9l-29.7-14.9-2.7-7.2c-6.1-16.2-7.9-20.5-8.9-20.7-1.7-.3-28.6 10.2-28.3 11.1.5 1.4 40 42.9 41.7 43.8.9.5 13.1 5 27.1 10.1 14 5.1 26.5 9.6 27.6 10 1.9.8-1.4 4.3-28.3 31.3l-30.5 30.4-1 16.9c-.7 12.1-.7 19.2.1 24.8.6 4.4 1 8 .8 8.2-.5.5-16.2-9.8-16.5-10.9-.1-.6 3.5-14.1 8-29.9l8.3-28.6 20.3-21.6 20.3-21.6h-35L363 324.5c-34.4-20.5-53.2-35.9-72.9-59.8l-10.4-12.5-18.1 13.3-18.1 13.3-.3 65.6-.2 65.5 19.7 26.6 19.7 26.5 22.1 12.6c24.2 13.8 44.6 24.1 54.2 27.3 6.1 2.1 17.3 2.9 17.3 1.3 0-.5-1.3-11.2-3-23.8-1.6-12.6-2.9-23.4-2.9-23.9 0-.6.9 1.7 2 5 1 3.3 5.1 16.5 9.1 29.2l7.3 23.3h4.5c8.6 0 13.3 4.9 19.5 20.4l3.6 8.8-3.6 16.6c-11.5 53.1-20.4 88.5-23.2 92.9-.6.8-11.2-3.2-35.2-13.3-18.9-7.9-35.3-14.4-36.5-14.4-1.2-.1-19.1 1.8-39.9 4.2l-37.9 4.2-26.5 20.6-26.5 20.5-20.5 39-20.4 39 .6 18c.3 9.9 1 31 1.5 47 .5 15.9 1.4 43.6 2 61.5l1.1 32.5 20.6 53 20.5 53 38.6 58.1 38.6 58.1 54.3 39.9 54.3 40 47.4 11.3 47.3 11.4 32.9-6.1 32.9-6.2 36.2-36.2 36.1-36.3 4.2-19.5c4.4-20.8 8.5-34.6 13.1-44.8 3.2-7.1 11.5-18.2 13.6-18.2 1.7 0 53.4 11.5 90.3 20.1l25.4 5.9 4.6-3.2c9.6-6.8 31-22.9 31-23.3 0-.2-1.8-4.6-4-9.7-7.6-17.5-8.2-20.3-8.6-40.3-.4-21.2-1.4-30-5.8-53.4l-3.3-17.3-10.4-10.7c-5.7-5.8-17.9-18.3-27.1-27.6l-16.7-17 2.8-6.5c1.6-3.6 11.4-26.3 21.9-50.5 10.4-24.2 22.9-52.8 27.7-63.5 11.5-25.9 36.4-76 41.2-83.2 3.6-5.3 15.8-18.8 17-18.8.3 0 .3 3 0 6.7-.8 9.8-5.3 21.3-20 50.8l-13 26 .7 88.7.6 88.6 33.9 72.3 33.9 72.2 34.7 42.4c23.6 28.8 36.4 43.6 39.9 46.2 12.5 9.1 44 30.3 53.3 35.9 12.9 7.8 37.6 20.9 47.3 25.2 15.7 6.9 38.2 13.4 56.9 16.5 12.6 2.1 24 1.6 44.3-1.9 12.3-2.2 58.1-13.8 60.5-15.5 1.2-.7 52-62.3 55-66.6 1.5-2.2 5.2-17 13.2-53l11.1-50-10.5-61.2L1259 932l-9.4-19.2c-5.1-10.6-20.6-42-34.4-69.8l-25-50.5-53.4-53.2-53.3-53.1-46-22-46-22-47-1.6c-25.9-.9-49.5-1.6-52.5-1.6h-5.6l-15.5-15.3c-14.9-14.5-24.1-25.6-37.3-44.7-8.5-12.4-12.3-18.5-29.2-47.9l-15.1-26.3 5-8.2c2.7-4.4 5.4-8.6 5.9-9.3.7-.9 3.3.2 10 4.4l9.1 5.6 9.5-10.4c20.6-22.5 38.1-37.9 43.2-37.9 4.9 0 26.3 19.2 65.3 58.5l33.8 34-11.6.3c-6.3.1-11.5.6-11.5 1s1.6 5.5 3.6 11.4c2.2 6.7 4.1 10.8 4.9 10.8.8 0 17.9 1.1 38 2.5s37.2 2.2 37.8 1.8c.7-.4 10.3-8 21.4-17l20.2-16.3-22.6-41.2-22.6-41.3-39.1-18.8-39.2-18.8-17.2-23.7c-23.5-32.4-32.5-43.6-47.2-58.2-13.3-13.2-22.4-24.7-33.9-42.8-14.6-23-25.1-44.1-29.7-60.5-4.2-14.5-8.6-22.6-17.3-31.2-4.1-4.1-7.6-7.3-7.8-7.2-.1.2 2.5 7.7 5.7 16.7 3.3 9.1 6 17 6 17.7 0 1.6-38.8 42.8-40.4 42.8-1.9 0-33.5-16.8-33.6-17.9 0-.4 5-8.9 11.2-18.7l11.1-17.9H781v-47.7l23.5-21.7 23.5-21.8-.1-16.6V90.5l-24.2-31.4-24.2-31.3-26.9-13.9L725.7 0h-75.2L632 20zm99.2 30 33.7 30.9-3.5 9.8c-2 5.4-3.6 9.9-3.8 10-.1.1-7.7-9.9-17-22.2L723.8 56l-33.9-17.7c-18.6-9.8-33.8-18.1-33.9-18.6 0-.4 9.3-.7 20.8-.7h20.7l33.7 31zm-65.7 7.6c5.9 3.6 29.1 21.6 41.5 32.2l3.5 3.1-14.9.3-14.8.3-10.2-11.3c-15.1-16.9-21.8-27.6-19-30.5 1-.9 6.5 1.4 13.9 5.9zm-17.1 75c1.9 1.8 2 2.8.6 5.5-2 3.7-8 1.8-8-2.6 0-4.2 4.4-5.9 7.4-2.9zm100.2 153.6c36.1 36.6 56.5 63 88.2 114.5l18.1 29.3-12.2 6.3c-6.7 3.6-19.7 10.3-28.9 15.1l-16.8 8.7-25.6-5.1c-14.1-2.9-26.3-5.4-27.1-5.7-1.1-.5-1.4-.1-.9 1.3.3 1 2.5 10.6 4.9 21.1l4.4 19.3-12.9 16.7c-7.1 9.3-13.3 17.2-13.8 17.7-.6.6-63-7-73.2-9-2.7-.5-2.8-.4-2.8 3.8 0 5.9 4.1 12.6 14.1 23.2l8.1 8.6H742.5l17.1 17.2c25.2 25.6 30.4 32.8 30.4 42.2v5.6h-7c-7.8 0-12.4-1.4-29.5-9.3-38-17.4-75.3-43.4-110.9-77.2-15.6-14.8-19.1-18.6-18.9-20.6.2-1.3 2.3-22 4.8-46s4.5-44.8 4.5-46.2c0-2-2.8-4.9-14.6-14.7-8-6.7-14.7-12-14.9-11.8-.2.2-.7 7.7-1.1 16.7-.4 9-1 15.7-1.4 15-.4-.8-3.7-11.4-7.4-23.6l-6.6-22.2 5.5-34.8c3.1-19.1 5.9-35.6 6.3-36.5.4-1 14.7-11.2 31.7-22.7l31-21 31.6-.1h31.6l23.9 24.2zM469.5 349l5.9 6h-24.8l5.9-6c3.3-3.3 6.2-6 6.5-6 .3 0 3.2 2.7 6.5 6zm27.5 91.4 13.1 77.7 12.9 19.7 12.9 19.7 8.8 4.6c61.5 32.5 102.9 55.1 130.8 71.7 13.8 8.2 47.3 28.8 48.4 29.8.2.1-2 6.3-4.8 13.6s-5.1 13.7-5.1 14.1c0 .4 4.4.7 9.8.7 11.5.1 23.1 2 29.8 4.9 7.2 3.2 17.4 9.4 17.4 10.7 0 .6-17.5 39.3-38.8 86l-38.8 84.9-9.5.3-9.4.3 11.4-11.5 11.4-11.4-.7-98.4c-.4-54-1.1-98.6-1.4-99-.4-.3-34.3-19.3-75.3-42.2L545.3 575l-21.4-25.1-21.4-25.1-5.2-29.7C486 430.4 483 406.2 483 379.6c0-9.9.2-17.7.5-17.5.2.3 6.3 35.5 13.5 78.3zm104.8.8c3.2 3.2-.4 8.7-4.8 7.3-2.5-.8-3.7-5-2-7 1.5-1.8 5.1-2 6.8-.3zm385.1 13.4c18.8 8.7 37.1 24.8 37.1 32.6 0 4.2-4.1 8-7.7 7.3-12.6-2.7-36-8.9-37-9.9-.7-.6-2.8-5.5-4.8-10.9-3.7-10.4-4.7-20.1-2.3-22.5 1.7-1.7 5.8-.8 14.7 3.4zm-386.1 12.1 4 10.3-4.2 10.5c-2.4 5.8-4.6 10.9-5 11.2-.3.4-.6-9.4-.6-21.7 0-12.3.4-22 .8-21.5.5.6 2.7 5.6 5 11.2zm-119.4 82.9c-.3 14.9-5.2 15.1-14.8.4-2.5-3.8-4.6-7.2-4.6-7.5 0-.3 4.4-.4 9.8-.3l9.7.3-.1 7.1zm-37.7 18.6c-.7 22.3-1.7 33.1-7.4 76l-3.8 28.8h-9.2c-5.1 0-9.3-.4-9.3-.9 0-3.9 8.6-63.2 10.6-73.1 2.7-13.2 6.6-28.2 8.9-33.7 1.9-4.4 9.4-17.3 10.2-17.3.3 0 .3 9.1 0 20.2zm27.4 47.6 11.6 20.8-2.8 35.3c-1.6 19.5-2.9 35.7-3.1 36.2-.2.5-6.9-4-14.9-9.9l-14.5-10.9 5.6-46.1c3-25.4 5.7-46.2 6-46.2.3 0 5.7 9.4 12.1 20.8zm119.7 24.5c14.1 9.9 18.2 13.3 18.2 15 0 1.2-3.4 27.5-7.6 58.5l-7.7 56.3 3.7 11.8c3.9 12.6 5.6 22.1 3.8 22.1-1.6 0-15.6-15.3-32.2-35.3L553.5 750l-3.6-20.3-3.6-20.2 1.8-6c17.4-60.6 22.5-77.3 23.4-76.7.5.3 9.2 6.4 19.3 13.5zM865 654v10h-5.9c-6.5 0-11.7-1.5-12.5-3.5-.8-2.2 4-7.3 11.4-12.1 3.6-2.3 6.6-4.3 6.8-4.3.1-.1.2 4.4.2 9.9zm-540 4.4c6.9 1.5 17 4.1 22.5 5.8 12.4 3.8 36.7 12.6 37.9 13.8 1.9 1.9-7.9 54.9-27.9 151.5-14.1 68-23.6 110.9-27.1 122.7-.5 1.7 1.7 1.8 37 1.8 20.7 0 37.6.3 37.6.6s2.5 10.3 5.5 22.2c3 11.9 5.5 22.8 5.5 24.2 0 1.4-2.5 11.9-5.4 23.3l-5.3 20.8 3.6 2.3c2 1.3 5.2 2.8 7.1 3.4 8 2.6 39.4 6 102.6 11.2 50.5 4.1 77.5 6.7 80.7 7.6 1.6.5 1.8 1.3 1.2 5.7-1.6 12.2-7.9 33.5-15 50.8-5.9 14.4-10.7 23.4-20.2 37.9l-7.6 11.5-32.1 15.3-32.1 15.2h-9.1c-19.4 0-46.1-4.2-63.8-10.1-10.7-3.6-40.2-18.4-57.7-29-22.4-13.6-56.3-35.7-58.5-38.1-2.7-3-72.6-93.6-74.7-96.8-.8-1.4-9.7-22.3-19.7-46.5s-21-50.8-24.4-59l-6.3-15-.6-13c-.3-7.2-2-40.8-3.7-74.7l-3.2-61.7 17.8-32.6 17.9-32.7 30.5-20.9 30.5-21 22 .4c19 .4 23.7.8 34.5 3.1zm662 13.8 34.5 10.3 45.7 30.5 45.6 30.5 43.6 57.7 43.5 57.7 21 54.8 21 54.8 1 65.3 1 65.3-9.8 21.7c-5.4 11.9-13.1 29-17.1 37.9-4 9-7.8 16.7-8.4 17.2-.6.5-16.7 9.7-35.7 20.4l-34.7 19.4-19.3-.8c-33.6-1.4-57.6-7.4-83.5-20.9-23.5-12.3-35.9-20.1-71.8-45.4l-22.8-16.1-16.2-22c-35.3-47.9-51.9-76.7-86.9-150.7l-13.4-28.3-1.2-21c-.6-11.6-2.5-43.9-4.1-71.9l-3-50.8 7.6-22.6c10.8-32.3 18.7-47.7 22.8-44.3 6.1 5 29.1 47.8 66.7 123.8l31.7 64.1 29.9 32.6 29.8 32.5.3-13.1.3-13.1-16.3-15.6c-9-8.5-21.3-20.5-27.5-26.6l-11.2-11-43.5-97.5-43.5-97.5 10.6-10.7 10.7-10.7 3.1 4.7c1.8 2.6 16.8 26.5 33.5 53.2 47.9 76.7 73.3 114.1 95.7 140.7 18.3 21.7 26.7 34.8 31.9 50l2.9 8.3h6.3c10.4 0 14.9-3.8 11.8-9.9-2-3.7-12.3-16.8-19.5-24.6-13.2-14.4-43.7-59-75.3-110-25-40.4-71-116.6-70.6-117 .7-.7 43.3-11.3 45.8-11.4 1.4-.1 18 4.5 37 10.1zM418.4 698l8.9 5.4-.7 8.1c-.4 4.4-2.9 34.3-5.7 66.5-2.7 32.2-5.2 62.7-5.6 67.8l-.6 9.3-14.2 22.4-14.2 22.5 1.9 9.2c3 14.6 5.6 33.2 4.7 34.2-.4.4-2.9-.7-5.6-2.5-11.4-7.8-29.3-21.1-29.3-21.7 0-.5 4.7-23 10.4-50.2 20.4-96.7 33.2-154.3 37.6-169.5 1.1-3.8 2-7.1 2-7.3 0-.4.2-.3 10.4 5.8zm41.4 32.6c7 5.9 12.8 11.2 13 11.9.2.7-2.2 16-5.2 34-3.1 18-5.6 33.5-5.6 34.5 0 1.2 11.6 9 38 25.6l38 23.9V879H423.4l1.8-13.8c3.9-28.8 19.9-141.8 20.4-143.5.3-.9.7-1.7 1-1.7.3 0 6.2 4.8 13.2 10.6zM505 890.4c20.7 3 33.9 5.9 54.3 12 6.2 1.9 14.5 4.4 18.5 5.5l7.2 2.2v25.1l-8.7-.6c-25.2-1.9-38.7-4.5-93.3-18.4l-38.5-9.7-.3-9.4-.3-9.4 25.3.6c13.9.3 30 1.3 35.8 2.1zm118.3 19.1 5.6 9-2 8c-3 12.1-6.7 22.7-8.9 25.5l-1.9 2.5-1.2-3c-.9-2.1-1.4-11.5-1.7-30.5l-.3-27.5 2.4 3.5c1.3 1.9 4.9 7.5 8 12.5zm54.7-6.6c0 3.7-.9 6.7-3.7 12.3-3.5 6.9-20.1 31.7-21.3 31.8-.3 0-1.5-5.5-2.8-12.3-1.2-6.7-3.3-17.7-4.6-24.5l-2.3-12.2H678v4.9zm54.2 25.7c9.5 8.6 18.1 16.4 19.2 17.4 1.8 1.7 1.6 1.9-4 5.6-13 8.3-24 11.4-40.5 11.4H697v-7.8c0-8.1 2.2-16.7 6.2-24.5 2.5-5 10.6-17.7 11.3-17.7.2 0 8.2 7 17.7 15.6zM519.5 943c67.8 17.8 68 17.9 67.4 18.3-1.4.9-43.2-1.5-56.9-3.2-45.9-5.9-78-13.1-85.5-19.3l-3.7-3.1 5.3-5.3c3.2-3.2 6-5.2 6.9-5 .8.3 30.8 8.2 66.5 17.6zm117.4 53.3c4.9 23.3 6.3 28.3 8.3 30.5 8.9 9.8 25.8 29.2 25.8 29.6 0 .3-8.3.6-18.6.6h-18.5l-1.4-3.4c-6-14.3-12.7-43.3-14.4-62.1-2.1-22.8-2.8-19.6 4.8-24.3l6.6-4.1.8 2.7c.4 1.5 3.4 15.2 6.6 30.5zm-170.6-28.8c46.8 6.2 131.4 18.7 132.2 19.7.2.3 5.5 65.5 5.5 67.9 0 1.3-1 1.4-8.7.2-9.6-1.3-47.3-5.2-111.3-11.3l-41.4-3.9-9.5-9.5-9.5-9.5 4.8-21.8c2.6-12 5.5-24.8 6.3-28.6 1-4.4 2-6.7 2.9-6.7.8 0 13.7 1.6 28.7 3.5zM762 989.2c0 15.7-1.1 28.2-2.5 29.6-2.1 2.1-24.2-20.8-30.7-31.9-2.8-4.7-3.8-7.5-3.8-10.6V972h37v17.2z"/><path d="M446 120.9c-50.3 13.8-74 23.4-107.9 43.4l-14.4 8.5-18.3 34.3-18.3 34.4 3.6 3.7c7.3 7.5 14.6 8.9 18.6 3.5 4.4-5.7 9.4-16.8 14.8-32.5l5.3-15.4 18.5-12.6c33.5-22.9 60.1-37.4 89-48.7 16.1-6.3 27-11.5 31.7-15 2.9-2.2 3.4-3.2 3.4-6.6 0-2.1-.3-3.9-.7-3.8-.5 0-11.8 3.1-25.3 6.8zM136 1196.5v8.4l3.3.5c18.6 2.8 222.2 10.3 207.2 7.6-6.5-1.2-85.2-11.8-125.5-17-46.1-5.8-66.4-8-76.2-8H136v8.5zM846 1214.5c-7.4 3-13.2 5.4-12.9 5.4.4.1 6.5 1.4 13.7 3 29.6 6.8 48.7 8.2 116.2 8.6 29.4.2 52.8.2 52-.1-.8-.2-32.8-4.9-71-10.4-38.2-5.6-72.4-10.5-76-11-3.6-.5-6.9-.9-7.5-.9-.5 0-7.1 2.4-14.5 5.4zM113.5 1217.1c-22.6.3-56.7.7-75.9.8-19.2 0-34.7.4-34.4.7.3.3 12.7 2 27.4 3.9 42.8 5.4 88.5 8.7 137.9 10 11.6.3 27.9.8 36.3 1.1l15.2.6V1216l-32.7.2c-18.1.1-51.2.5-73.8.9z"/></svg>